<?xml version="1.0" standalone="no"?>
<!DOCTYPE svg PUBLIC "-//W3C//DTD SVG 20010904//EN"
 "http://www.w3.org/TR/2001/REC-SVG-20010904/DTD/svg10.dtd">
<svg version="1.0" xmlns="http://www.w3.org/2000/svg"
 width="1220.000000pt" height="636.000000pt" viewBox="0 0 1220.000000 636.000000"
 preserveAspectRatio="xMidYMid meet">

<g transform="translate(0.000000,636.000000) scale(0.100000,-0.100000)"
fill="#000000" stroke="none">
<path d="M0 3180 l0 -3180 6100 0 6100 0 0 3180 0 3180 -6100 0 -6100 0 0
-3180z m5920 2626 c-119 -42 -290 -141 -313 -182 -5 -8 -13 -11 -19 -8 -6 4
-8 3 -5 -3 4 -6 -3 -19 -15 -29 -48 -43 -137 -166 -181 -250 -182 -354 -141
-776 109 -1105 148 -194 409 -345 658 -380 l85 -12 -38 -76 c-57 -115 -75
-175 -62 -212 l11 -31 -98 7 c-53 4 -110 9 -127 10 -27 2 -32 10 -70 96 -22
52 -53 119 -69 149 -27 51 -31 66 -35 113 0 10 -6 15 -11 12 -7 -4 -6 -14 1
-28 10 -21 9 -21 -5 -3 -9 10 -13 23 -10 27 3 5 -2 9 -11 9 -11 0 -15 -5 -12
-15 4 -8 -23 -74 -58 -147 -36 -73 -65 -128 -65 -121 0 6 -21 23 -47 39 -80
45 -163 111 -261 206 -51 49 -88 87 -82 83 6 -4 -10 21 -35 56 -26 35 -52 67
-59 71 -6 4 -6 8 -1 8 6 0 5 4 -1 8 -19 12 -72 126 -104 220 -215 643 159
1309 833 1482 135 35 189 38 97 6z m433 -274 c138 -140 165 -188 175 -314 l7
-83 45 -7 c25 -3 64 -7 88 -7 23 -1 42 -4 42 -8 0 -4 -12 -20 -27 -35 -23 -24
-35 -28 -78 -28 -65 0 -110 15 -128 44 -8 12 -20 64 -26 115 -7 51 -19 107
-28 125 -9 17 -56 72 -104 122 l-88 91 -67 -68 c-55 -55 -71 -66 -85 -58 -10
5 -27 9 -38 9 -12 0 -21 3 -21 7 0 9 202 213 210 213 3 0 59 -53 123 -118z
m-288 -150 c27 -13 75 -46 107 -73 l58 -51 59 51 c32 28 64 51 70 51 6 0 18
-14 27 -32 14 -26 14 -33 3 -37 -7 -2 -37 -26 -65 -53 -44 -41 -57 -48 -92
-48 -36 0 -49 7 -98 51 -88 79 -116 89 -271 89 l-133 0 0 -92 0 -93 -40 -22
-40 -21 0 155 0 155 183 -4 c165 -3 187 -5 232 -26z m745 -94 l0 -123 -35 -22
c-19 -13 -37 -23 -40 -23 -3 0 -5 47 -5 105 l0 105 -93 0 -94 0 -16 40 -15 40
149 0 149 0 0 -122z m-795 -10 c2 -2 -1 -40 -5 -85 -10 -117 -24 -129 -156
-143 -108 -11 -144 -32 -252 -145 l-83 -87 65 -68 c37 -38 66 -72 65 -77 0 -4
-6 -22 -12 -40 l-12 -32 -111 109 -110 110 125 124 c69 68 146 134 170 146 27
14 80 26 136 33 l92 11 6 73 c3 40 8 77 11 82 5 8 62 -1 71 -11z m1069 -154
c64 -22 147 -100 177 -166 32 -74 32 -182 0 -255 -13 -29 -28 -53 -33 -53 -5
0 -7 -4 -4 -8 8 -14 -65 -75 -127 -106 -83 -41 -138 -44 -233 -12 -69 23 -89
35 -153 97 l-74 70 43 44 43 44 51 -52 c106 -110 234 -130 319 -49 86 81 89
198 8 285 -37 41 -73 57 -125 57 -95 0 -156 -43 -372 -262 -212 -215 -241
-233 -369 -233 -79 1 -97 4 -148 29 -68 34 -107 78 -136 153 -58 150 8 316
152 384 146 69 267 38 404 -103 l42 -43 -35 -38 c-19 -20 -38 -37 -41 -37 -4
0 -26 20 -49 44 -71 75 -118 101 -184 101 -137 0 -233 -135 -186 -259 34 -89
131 -146 216 -127 64 14 108 51 287 238 172 180 235 234 300 258 52 19 169 19
227 -1z m-1271 -205 c76 -96 76 -115 -2 -203 -74 -84 -83 -114 -79 -281 l3
-130 88 0 89 0 18 -35 c11 -19 19 -37 20 -40 0 -3 -66 -3 -147 0 l-148 5 -3
159 c-4 224 12 278 115 387 l34 36 -56 64 -56 64 26 23 c14 12 30 22 34 22 4
0 33 -32 64 -71z m153 -353 c26 -18 44 -71 44 -134 0 -97 17 -130 121 -237
l98 -100 64 63 64 64 42 -13 c22 -7 41 -14 41 -16 0 -2 -15 -16 -32 -31 -18
-15 -66 -58 -106 -97 l-73 -70 -133 135 c-147 150 -152 160 -163 299 l-6 79
-83 7 c-87 7 -89 9 -77 54 6 23 8 24 91 18 49 -4 94 -12 108 -21z m710 -3 c18
-16 34 -31 34 -34 0 -3 -37 -9 -82 -13 -44 -4 -85 -9 -90 -12 -4 -3 -8 -31 -8
-62 0 -80 -8 -102 -35 -102 -50 0 -51 4 -41 100 10 102 27 128 93 140 70 14
93 11 129 -17z m107 -75 c27 -19 27 -20 27 -139 l0 -119 -173 0 c-213 0 -243
8 -332 91 -34 33 -66 59 -70 59 -4 0 -35 -25 -68 -56 l-62 -55 -22 28 c-13 15
-23 30 -22 33 0 3 28 29 61 58 94 81 123 81 215 1 92 -81 122 -91 268 -87
l125 3 0 108 c0 116 -2 113 53 75z m445 -120 c-35 -124 -142 -342 -174 -355
-8 -3 -14 -11 -14 -19 0 -8 -4 -14 -10 -14 -5 0 -10 -6 -10 -13 0 -7 -28 -42
-62 -78 -35 -36 -47 -47 -28 -25 l35 41 -47 -44 c-26 -24 -45 -48 -42 -53 3
-5 1 -7 -5 -6 -6 2 -22 -10 -36 -27 -15 -16 -24 -24 -20 -17 3 7 -22 -8 -58
-33 -54 -38 -139 -82 -282 -146 -47 -21 -50 -22 -43 -14 4 4 -2 25 -13 46 -11
22 -16 39 -12 39 5 0 4 4 -2 8 -5 4 -28 43 -50 87 -22 44 -41 83 -43 86 -1 3
33 9 77 13 102 8 247 45 335 85 201 91 396 272 487 454 16 31 31 57 33 57 3 0
-5 -33 -16 -72z m743 -631 c-33 -95 -36 -139 -12 -167 l21 -25 25 30 26 30 -7
-30 c-8 -41 -37 -79 -62 -83 -45 -7 -65 74 -41 163 13 47 59 148 65 142 2 -2
-5 -29 -15 -60z m-737 1 c44 -158 67 -346 101 -818 28 -402 38 -485 67 -552
28 -66 84 -115 142 -123 106 -16 191 18 320 129 48 42 96 76 106 76 16 0 17
-7 13 -60 -5 -46 -2 -65 11 -86 46 -69 181 -71 263 -3 16 13 49 48 74 78 65
80 88 103 98 96 6 -3 6 -18 0 -38 -15 -54 -11 -92 15 -120 29 -31 64 -42 114
-34 47 8 75 38 126 133 48 90 80 111 71 47 -8 -49 18 -99 65 -131 31 -21 45
-23 110 -20 64 3 88 9 164 46 79 38 88 45 82 65 -28 113 -59 410 -86 822 -11
171 -25 327 -31 347 -11 34 -9 44 21 113 18 42 38 74 43 72 6 -2 41 -75 79
-163 63 -148 89 -236 74 -251 -3 -4 -24 13 -46 37 l-40 43 0 -49 c1 -253 58
-835 90 -920 9 -21 10 -22 52 -7 60 21 145 13 187 -17 50 -35 71 -90 70 -185
-1 -44 -3 -72 -6 -62 -5 20 -14 22 -30 6 -9 -9 -11 -7 -7 7 3 12 -6 32 -25 53
-35 40 -40 57 -11 39 11 -7 20 -16 20 -20 0 -5 7 -8 15 -8 9 0 12 6 9 15 -4 8
-12 15 -20 15 -8 0 -14 5 -14 10 0 6 12 4 29 -5 l30 -15 -4 30 c-5 39 -35 90
-53 90 -7 0 -11 -4 -8 -9 7 -11 -22 -23 -35 -15 -5 3 -9 1 -9 -4 0 -16 13 -22
25 -12 9 8 14 6 19 -5 3 -8 1 -15 -4 -15 -5 0 -6 -8 -3 -17 7 -17 6 -17 -10
-1 -18 17 -47 15 -47 -4 0 -6 7 -8 15 -4 9 3 15 0 15 -10 0 -11 -4 -12 -19 -4
-25 13 -111 13 -111 0 0 -5 -8 -6 -17 -3 -10 4 7 -19 38 -50 47 -48 61 -57 92
-57 26 0 40 6 51 22 l16 22 0 -21 c0 -42 -74 -58 -119 -26 -14 9 -21 11 -17 5
4 -7 1 -12 -9 -12 -9 0 -14 4 -11 8 3 5 -1 9 -9 9 -7 0 -15 -11 -18 -24 -3
-16 0 -23 12 -23 13 0 13 -2 2 -9 -9 -6 -19 -5 -26 2 -7 7 -9 14 -4 15 16 6
10 24 -8 20 -20 -4 -27 -38 -7 -38 9 0 13 -4 10 -9 -3 -5 10 -9 29 -8 21 1 30
4 22 9 -6 4 -8 8 -3 8 5 0 3 7 -4 15 -10 12 -10 15 4 15 9 0 16 -5 16 -11 0
-6 9 -9 20 -6 24 6 38 -11 16 -19 -9 -3 -14 -10 -11 -15 3 -4 -7 -15 -22 -24
-22 -13 -23 -15 -5 -10 13 4 22 2 22 -4 0 -6 -6 -11 -12 -11 -9 0 -8 -4 2 -10
13 -8 12 -10 -4 -10 -11 0 -39 21 -63 48 -24 26 -49 47 -56 47 -6 0 -12 7 -12
15 -1 26 -16 61 -25 55 -5 -3 -11 4 -15 15 -6 19 -11 18 -88 -23 -135 -72
-212 -91 -296 -74 -54 10 -106 49 -142 106 l-15 24 -35 -58 c-39 -66 -71 -94
-120 -104 -84 -18 -156 27 -184 114 l-6 20 -15 -20 c-28 -40 -90 -97 -133
-122 -65 -39 -188 -37 -233 4 -27 24 -58 91 -58 127 0 28 -1 28 -59 -30 -162
-162 -331 -183 -464 -58 -50 47 -87 158 -103 314 -4 41 -10 64 -12 50 -2 -14
-21 -62 -42 -107 -44 -95 -94 -147 -187 -195 -35 -18 -63 -36 -63 -40 0 -4 44
-34 98 -68 136 -83 138 -85 122 -158 -7 -33 -15 -64 -19 -70 -4 -7 -29 0 -71
21 -56 27 -79 32 -161 35 -71 3 -112 0 -155 -13 -113 -32 -274 -134 -362 -229
-27 -30 -53 -52 -56 -49 -3 4 -6 -1 -6 -11 0 -9 -8 -20 -17 -23 -19 -7 -70
-52 -134 -115 -58 -58 -103 -76 -184 -74 -83 2 -128 25 -169 86 -59 90 -68
213 -24 344 20 61 85 196 111 231 14 18 11 22 -35 63 -28 26 -62 70 -79 104
l-29 58 -58 -29 c-32 -16 -85 -38 -118 -49 -34 -11 -75 -27 -93 -37 -18 -9
-44 -18 -59 -20 -15 -2 -58 -10 -96 -19 -152 -36 -318 -56 -459 -57 -143 0
-193 6 -277 36 -52 18 -55 16 -87 -61 -33 -79 -47 -38 -17 49 l16 47 -37 33
c-37 32 -85 116 -85 150 0 29 -23 19 -70 -30 -42 -43 -146 -103 -180 -103 -12
0 -15 -17 -15 -93 0 -78 -4 -100 -25 -142 -23 -45 -28 -50 -55 -47 -16 2 -50
13 -75 23 -25 11 -47 20 -50 20 -16 0 -54 51 -82 108 -25 53 -31 80 -32 133
-1 71 -5 79 -27 51 -8 -9 -35 -33 -61 -54 -26 -20 -44 -40 -40 -44 4 -5 3 -6
-3 -3 -5 3 -41 -9 -79 -26 l-69 -31 87 -58 c48 -32 90 -65 93 -74 3 -8 -2 -49
-11 -90 -16 -67 -19 -73 -31 -55 -26 36 -133 76 -216 80 -183 9 -323 -62 -574
-293 -151 -139 -210 -177 -280 -183 -76 -6 -116 11 -173 74 -62 67 -78 122
-68 232 7 86 53 208 115 308 l40 64 -23 25 c-34 36 -46 91 -46 201 0 159 59
356 165 548 60 109 61 67 2 -75 -82 -195 -110 -349 -83 -444 36 -122 113 -128
161 -12 19 47 40 50 31 5 -14 -72 -39 -139 -47 -126 -9 13 -10 9 -13 -44 -1
-9 -5 -20 -10 -25 -5 -5 -6 -2 -1 6 5 10 4 12 -4 7 -6 -4 -10 -13 -9 -19 2 -7
1 -12 -2 -12 -3 0 -16 -8 -30 -18 -13 -9 -31 -17 -39 -17 -7 0 -24 -12 -37
-27 -35 -40 -97 -170 -88 -184 4 -8 3 -9 -4 -5 -7 4 -12 5 -12 2 0 -2 -3 -13
-6 -23 -5 -15 -4 -16 6 -3 10 13 11 12 6 -3 -3 -10 -6 -23 -6 -28 0 -6 -4 -8
-9 -5 -5 3 -12 -1 -15 -10 -3 -8 -2 -13 2 -10 4 2 7 -35 7 -84 0 -102 14 -132
79 -164 32 -16 43 -17 84 -7 66 17 127 60 282 201 74 67 161 140 194 162 67
46 180 100 246 118 44 12 44 13 23 27 l-21 14 20 62 c11 34 24 66 28 70 4 4
58 21 120 37 165 44 249 87 336 175 l72 73 37 -38 c41 -42 106 -74 172 -85 91
-15 217 41 313 139 50 52 74 60 64 21 -13 -54 68 -205 111 -205 7 0 32 35 55
78 106 193 229 329 349 385 130 62 268 37 374 -67 65 -62 91 -123 83 -190 -7
-64 -45 -140 -98 -201 -30 -34 -36 -46 -23 -42 11 3 49 13 85 22 81 21 206 65
284 99 l58 27 -6 42 c-36 214 -68 541 -85 849 -6 98 -15 195 -21 215 -10 35
-8 45 26 118 l37 80 42 -90 c60 -128 115 -279 115 -317 l0 -32 -46 44 -46 45
6 -135 c13 -253 61 -700 83 -755 4 -11 13 -15 27 -11 11 4 43 11 70 16 136 28
229 -76 213 -238 -6 -55 -59 -181 -78 -183 -11 -2 -26 -5 -36 -9 -16 -6 -48
-5 -53 2 -11 14 -28 -8 -73 -92 -112 -209 -122 -376 -24 -426 45 -24 105 -20
164 10 28 13 113 82 189 151 222 202 354 291 491 331 l57 17 -29 23 c-17 13
-36 24 -42 24 -7 0 -13 6 -13 14 0 28 43 127 59 135 9 5 59 23 110 40 184 62
271 128 308 234 37 106 15 586 -43 928 l-25 146 26 82 c14 44 30 81 35 81 5 0
16 -24 24 -52z m312 -3 c54 -55 101 -150 115 -234 10 -66 -2 -175 -24 -218
-11 -20 -13 -10 -12 74 0 91 -2 103 -32 164 -18 36 -57 92 -87 123 -30 31 -53
62 -51 69 19 54 26 67 35 67 6 0 31 -20 56 -45z m2156 -42 c48 -104 105 -259
114 -308 7 -39 7 -39 -15 -25 -12 8 -22 19 -21 23 1 10 -43 46 -50 42 -3 -2 7
-133 22 -292 76 -795 76 -854 12 -1054 -39 -120 -50 -101 -46 82 3 126 -5 241
-37 580 -23 233 -47 514 -55 625 -8 111 -19 211 -26 223 -10 19 -7 35 20 102
18 43 36 79 40 79 4 0 23 -35 42 -77z m-5767 32 c14 -13 25 -35 25 -49 0 -55
-24 -73 -48 -36 -14 23 -44 26 -61 6 -6 -7 -22 -62 -36 -120 -28 -124 -44
-176 -54 -176 -4 0 -15 26 -25 58 -10 31 -29 79 -43 105 -22 44 -26 48 -52 42
-22 -5 -35 0 -56 18 -24 20 -27 28 -21 60 9 46 31 70 60 61 51 -15 116 -108
131 -187 10 -51 21 -46 29 13 17 124 68 230 111 230 9 0 27 -11 40 -25z m1210
8 c-4 -10 -12 -30 -17 -45 -5 -16 -14 -28 -18 -28 -5 0 -46 -17 -92 -38 -46
-21 -117 -51 -158 -67 -215 -80 -319 -120 -361 -141 -25 -12 -77 -33 -115 -45
-38 -12 -96 -34 -129 -49 -119 -54 -185 -81 -205 -85 -26 -5 -300 -124 -324
-140 -10 -8 -24 -11 -31 -9 -6 3 -18 -2 -25 -11 -7 -8 -19 -15 -26 -15 -8 0
-60 -24 -117 -52 -123 -63 -159 -79 -165 -73 -2 2 6 26 19 52 23 46 27 49 164
111 229 104 602 262 890 377 343 137 697 274 709 275 4 0 5 -8 1 -17z m1219
-190 c57 -142 77 -213 60 -213 -5 0 -26 19 -46 42 l-37 43 -1 -45 c0 -25 15
-207 34 -405 44 -464 51 -598 36 -705 -12 -89 -64 -265 -80 -275 -6 -4 -10 58
-10 167 0 170 -11 347 -50 763 -10 116 -24 291 -30 390 -7 99 -16 200 -22 225
-15 67 -13 79 23 154 l32 69 17 -34 c10 -19 43 -98 74 -176z m2547 126 c-20
-43 -44 -58 -156 -99 -33 -12 -69 -27 -80 -34 -11 -7 -42 -21 -70 -31 -27 -10
-59 -25 -71 -32 -11 -7 -23 -11 -26 -8 -3 3 -42 -12 -86 -35 -44 -22 -82 -40
-85 -40 -10 0 -287 -119 -370 -160 -46 -22 -88 -40 -94 -40 -6 0 -102 -45
-213 -99 -216 -106 -205 -105 -177 -22 11 30 24 39 127 88 286 136 627 284
1065 462 110 45 209 86 220 90 31 13 35 4 16 -40z m-5712 -25 c39 -50 16 -128
-24 -84 -21 23 -48 26 -64 6 -6 -7 -23 -64 -37 -127 -40 -175 -40 -161 1 -183
55 -30 107 -92 99 -119 -14 -47 -34 -67 -67 -67 -49 0 -131 -27 -151 -49 -23
-25 -19 -64 24 -241 27 -110 33 -156 34 -250 1 -67 -4 -123 -10 -134 -9 -14
-12 3 -16 80 -4 65 -20 159 -47 271 -23 95 -41 192 -41 215 1 82 56 162 122
175 31 6 34 13 16 31 -19 19 -39 14 -70 -15 -28 -26 -28 -26 -28 -5 0 33 28
95 51 112 20 16 20 16 -1 85 -29 93 -62 145 -90 138 -11 -3 -26 0 -33 6 -8 6
-16 8 -20 5 -3 -3 -13 5 -21 19 -14 21 -15 30 -4 63 11 32 18 40 41 42 23 3
37 -5 72 -41 39 -41 85 -134 85 -172 0 -8 4 -16 9 -20 5 -3 13 21 17 52 9 78
39 174 65 207 26 34 62 34 88 0z m3736 -71 c14 -14 16 -30 12 -92 -4 -70 -3
-78 19 -102 21 -22 23 -29 13 -57 -13 -37 -28 -40 -54 -12 -17 19 -19 18 -82
-50 -35 -38 -97 -90 -137 -115 -73 -45 -234 -120 -242 -113 -2 3 62 49 142
102 80 54 171 122 202 152 51 48 55 55 39 65 -51 30 -71 57 -70 92 1 45 36
103 77 128 38 23 60 24 81 2z m-1459 -107 c16 -12 19 -26 18 -96 -1 -74 1 -84
23 -106 25 -25 25 -54 -1 -82 -10 -10 -18 -9 -40 9 l-27 21 -21 -29 c-65 -85
-183 -169 -324 -231 -129 -57 -126 -45 11 45 95 63 245 176 273 205 l22 25
-37 24 c-41 26 -59 63 -50 101 11 41 51 92 87 110 42 22 41 22 66 4z m-623
-236 c21 -6 41 -18 44 -27 17 -43 -143 -253 -192 -253 -8 0 -56 -13 -107 -30
-162 -53 -157 -40 27 67 74 43 135 81 135 86 0 19 -63 28 -168 25 l-113 -3 6
25 c8 36 57 103 85 118 29 15 221 10 283 -8z m4037 -18 c19 -15 22 -27 21 -85
0 -37 -3 -72 -6 -77 -3 -5 5 -16 19 -25 33 -22 36 -35 20 -74 l-14 -33 -29 22
-30 21 -38 -43 c-84 -96 -129 -130 -260 -195 -132 -67 -184 -80 -101 -26 143
93 358 257 358 273 0 4 -21 21 -46 39 -46 32 -46 33 -41 77 5 49 46 110 88
131 31 16 33 16 59 -5z m-2831 -106 c-38 -110 -48 -196 -25 -231 22 -34 42
-32 63 8 16 30 18 31 21 9 2 -13 -7 -44 -20 -70 -29 -59 -64 -68 -97 -26 -28
35 -28 114 -1 213 24 84 69 181 85 181 2 0 -10 -38 -26 -84z m3396 -3 c-35
-101 -44 -193 -21 -228 22 -34 42 -32 66 8 23 36 25 30 9 -28 -12 -46 -45 -85
-69 -85 -53 0 -75 107 -46 221 17 65 76 203 83 195 3 -2 -7 -40 -22 -83z
m-1077 -60 c23 -3 52 -13 64 -22 l20 -17 -26 -51 c-32 -65 -118 -169 -154
-186 -38 -20 -220 -69 -234 -65 -11 4 68 56 142 93 19 10 60 34 90 53 53 33
54 35 31 44 -39 14 -192 20 -238 10 -50 -12 -52 -8 -19 56 30 59 62 89 101 95
32 5 151 0 223 -10z m-4303 -134 c35 -105 32 -180 -9 -216 -33 -28 -71 -23
-101 14 l-21 25 -13 -26 c-35 -64 -102 -67 -133 -5 -11 20 -18 57 -18 91 0 41
-4 59 -15 66 -18 10 -8 49 19 71 27 23 36 2 36 -81 0 -62 4 -86 17 -100 21
-23 45 -23 67 1 21 23 23 42 13 131 -7 67 3 104 22 85 6 -6 16 -45 22 -88 12
-82 37 -127 69 -127 38 0 42 24 15 94 -14 36 -25 73 -25 81 0 17 18 65 24 65
2 0 16 -36 31 -81z m3615 -57 c-44 -131 -39 -232 10 -232 12 0 28 13 40 33 19
31 20 31 20 7 0 -14 -10 -46 -22 -70 -19 -37 -28 -46 -55 -48 -46 -5 -63 25
-63 111 0 71 29 177 71 259 32 63 32 39 -1 -60z m-698 31 c20 -18 25 -87 7
-98 -6 -4 -21 2 -33 14 -47 44 -65 19 -109 -154 -17 -71 -37 -130 -44 -132 -6
-2 -14 11 -18 29 -4 18 -21 66 -37 106 -29 70 -32 74 -58 69 -31 -7 -90 25
-90 48 0 9 7 31 14 50 12 28 20 35 44 35 49 0 91 -57 149 -200 9 -21 11 -17
22 40 16 84 46 168 67 191 21 23 61 24 86 2z m-3619 -174 c-13 -39 -24 -93
-25 -120 0 -81 37 -105 72 -46 22 35 25 22 10 -34 -23 -83 -89 -89 -110 -9
-16 59 13 192 56 257 24 37 23 27 -3 -48z m6191 -375 c3 -8 2 -12 -4 -9 -6 3
-10 10 -10 16 0 14 7 11 14 -7z m-310 -130 c3 -8 2 -12 -4 -9 -6 3 -10 10 -10
16 0 14 7 11 14 -7z m326 -35 c0 -5 -6 -8 -12 -6 -8 1 -12 -7 -11 -20 2 -13
-2 -23 -7 -23 -6 0 -9 -3 -9 -7 3 -20 -2 -34 -10 -28 -5 3 -16 -2 -24 -10 -17
-16 -53 -20 -61 -6 -3 4 7 6 22 4 25 -3 26 -3 5 6 -23 10 -32 31 -13 31 6 0
10 -4 10 -10 0 -5 9 -10 20 -10 11 0 20 4 20 10 0 5 -6 8 -12 6 -7 -1 -10 -1
-5 1 4 3 7 9 7 14 0 16 -30 9 -51 -12 -17 -17 -23 -19 -30 -8 -6 9 -4 15 6 17
8 2 11 10 8 19 -5 12 -1 14 15 8 14 -4 22 -2 22 5 0 6 -4 8 -10 5 -5 -3 -10
-2 -10 4 0 5 9 9 20 8 11 -1 20 -5 20 -10 0 -8 39 -54 41 -46 0 2 3 13 5 24 3
11 6 25 6 30 2 14 38 17 38 4z m-3911 -207 c18 -33 22 -86 8 -112 -15 -30 -54
-29 -105 2 -18 11 -34 19 -35 17 -2 -2 -9 -17 -17 -34 -23 -46 -101 -118 -156
-142 -52 -23 -274 -87 -280 -81 -2 2 36 21 84 43 195 86 314 162 349 224 37
64 61 94 86 108 25 13 51 3 66 -25z m3541 -32 c5 -10 10 -40 10 -65 0 -38 -4
-48 -20 -52 -11 -3 -17 -10 -13 -17 4 -7 1 -6 -9 1 -8 7 -18 10 -21 7 -3 -4
-22 4 -42 16 -20 12 -37 21 -39 19 -2 -2 -11 -17 -19 -34 -25 -48 -59 -80
-109 -104 -27 -13 -48 -28 -48 -34 0 -5 -3 -8 -6 -4 -4 3 -34 -8 -68 -25 -57
-29 -154 -57 -201 -58 -11 0 33 24 98 54 227 105 297 155 357 256 45 76 101
94 130 40z m-4166 -10 c45 -17 51 -45 22 -103 -31 -63 -73 -92 -161 -112 -75
-18 -101 -16 -138 8 -46 30 -63 22 -175 -86 -68 -64 -130 -114 -170 -135 -35
-19 -65 -32 -67 -30 -3 2 32 31 76 63 44 33 92 73 106 90 53 64 139 147 167
162 20 11 43 13 77 9 l47 -6 48 55 c26 30 66 64 88 75 47 23 47 23 80 10z
m3506 -37 c0 -45 -28 -112 -47 -114 -5 0 -16 -2 -25 -4 -10 -2 -20 1 -24 6 -9
15 -46 10 -67 -8 -20 -19 -74 -22 -159 -8 -61 10 -101 -13 -222 -125 -52 -48
-109 -92 -140 -105 -94 -42 -102 -37 -23 14 42 28 121 95 175 149 132 135 196
164 287 131 49 -18 81 -5 111 46 30 52 46 58 38 16 -5 -23 -2 -32 16 -41 30
-16 54 -5 47 21 -6 22 11 69 25 69 4 0 8 -21 8 -47z m-4240 -53 c13 -24 13
-86 0 -111 -14 -25 -43 -24 -92 3 l-40 23 -41 -46 c-23 -25 -60 -58 -82 -72
-60 -39 -175 -89 -192 -83 -7 3 -16 -1 -19 -9 -4 -8 -18 -15 -33 -15 -15 0
-31 -4 -37 -10 -5 -5 -31 -12 -58 -15 -27 -4 -74 -13 -104 -20 -98 -26 -66 -9
75 40 165 57 315 122 383 165 53 34 100 83 100 104 0 14 44 58 75 74 23 12 50
1 65 -28z m3470 35 c0 -2 -7 -20 -17 -39 -14 -31 -30 -41 -137 -87 -66 -28
-125 -52 -130 -54 -6 -1 -31 -12 -56 -23 -25 -12 -51 -22 -58 -22 -7 0 -24 -7
-37 -16 -14 -9 -25 -13 -25 -9 0 4 -6 2 -13 -4 -14 -11 -277 -131 -277 -126 0
1 9 23 20 48 19 42 26 48 98 77 42 18 149 63 237 100 198 84 378 158 388 159
4 1 7 -1 7 -4z m-915 -118 l48 -43 -16 -30 c-14 -27 -25 -33 -79 -44 -37 -8
-71 -23 -84 -35 l-22 -22 24 -99 c15 -62 24 -127 23 -174 -1 -121 -14 -125
-27 -9 -7 57 -20 131 -28 164 -9 35 -14 82 -12 114 4 47 10 59 41 88 20 18 46
33 58 33 28 0 19 24 -10 28 -13 2 -32 -5 -43 -15 -21 -18 -21 -18 -14 16 15
82 70 93 141 28z m-3487 -17 c42 -30 52 -56 31 -77 -19 -19 -37 -4 -33 27 2
18 -3 33 -14 41 -14 11 -15 11 -4 -1 20 -23 14 -32 -10 -16 -30 21 -54 20 -78
-4 -24 -24 -26 -10 -5 30 21 40 59 40 113 0z m-30 -77 c-8 -10 -6 -13 5 -13 9
0 18 -4 22 -9 3 -6 -4 -8 -16 -6 -11 2 -38 -2 -60 -9 -21 -8 -36 -10 -33 -5
10 17 -9 9 -22 -8 -19 -25 -17 -38 3 -22 15 13 15 12 3 -7 -10 -17 -9 -35 9
-111 12 -54 21 -124 21 -173 0 -109 -10 -97 -14 16 -3 59 -8 90 -16 92 -9 3
-9 7 1 13 11 7 10 9 -3 9 -12 0 -18 8 -17 23 0 21 1 21 9 2 10 -24 12 -10 3
23 -4 18 -8 21 -15 10 -7 -9 -8 -5 -5 15 2 15 0 27 -5 27 -5 0 -6 6 -1 13 4 6
6 21 5 33 -3 24 41 82 72 94 33 12 66 8 54 -7z m209 -627 c12 -11 -51 -18 -82
-9 -23 8 -37 7 -44 0 -7 -7 -11 -7 -11 -1 0 6 3 13 6 17 7 7 123 1 131 -7z
m-57 -196 c0 -127 -2 -150 -15 -150 -13 0 -15 23 -15 144 0 137 2 147 28 155
1 1 2 -66 2 -149z m480 11 c0 -105 -3 -141 -14 -150 -9 -8 -67 -10 -180 -9
l-166 3 0 -26 c0 -33 -19 -56 -52 -65 -35 -8 -39 16 -5 31 21 9 22 17 25 123
2 90 5 112 17 112 12 0 15 -14 15 -63 0 -36 5 -68 12 -75 7 -7 31 -12 55 -12
l44 0 -16 30 c-20 39 -19 62 6 94 16 21 29 26 64 26 35 0 48 -5 64 -26 25 -31
27 -63 6 -90 -23 -31 -18 -35 38 -32 l52 3 3 133 c2 108 5 132 17 132 13 0 15
-23 15 -139z m90 -11 c0 -127 -2 -150 -15 -150 -13 0 -15 23 -15 150 0 127 2
150 15 150 13 0 15 -23 15 -150z m1130 26 c0 -138 5 -150 62 -144 32 3 33 4
36 56 2 36 7 52 17 52 9 0 15 -15 17 -46 3 -50 22 -72 52 -61 12 5 16 19 16
57 0 37 4 50 14 50 11 0 16 -14 18 -46 3 -50 22 -72 52 -61 13 5 16 21 16 77
0 63 2 71 18 68 13 -3 18 -15 20 -63 1 -34 -3 -71 -11 -85 -14 -28 -54 -38
-86 -21 -13 7 -22 8 -26 1 -3 -5 -17 -10 -31 -10 -14 0 -34 5 -44 10 -13 7
-21 7 -25 0 -9 -14 -98 -13 -113 2 -9 9 -15 9 -24 0 -8 -8 -45 -12 -100 -12
-72 0 -88 3 -88 15 0 11 11 15 41 15 l40 0 -3 105 c-3 95 -1 105 15 105 15 0
17 -12 17 -105 0 -103 0 -105 23 -105 42 0 47 17 47 147 0 103 2 123 15 123
13 0 15 -20 15 -124z m590 -10 c0 -169 2 -166 -126 -166 -77 0 -94 3 -94 15 0
11 11 15 40 15 l40 0 0 105 c0 87 3 105 15 105 12 0 15 -18 15 -106 l0 -105
33 3 32 3 3 133 c2 124 4 132 22 132 19 0 20 -7 20 -134z m90 -16 c0 -127 -2
-150 -15 -150 -13 0 -15 23 -15 150 0 127 2 150 15 150 13 0 15 -23 15 -150z
m1370 16 c0 -109 -3 -138 -16 -150 -18 -19 -94 -22 -112 -4 -9 9 -15 9 -24 0
-15 -15 -90 -16 -106 0 -9 9 -18 9 -37 0 -33 -15 -68 -15 -83 0 -9 9 -15 9
-24 0 -15 -15 -190 -16 -205 -1 -8 8 -17 8 -31 0 -11 -6 -39 -11 -61 -11 -35
0 -41 -3 -41 -20 0 -36 -44 -70 -90 -70 -29 0 -40 4 -40 15 0 10 10 15 34 15
36 0 66 21 66 46 0 10 -12 14 -38 14 -72 0 -106 53 -82 126 15 43 64 70 104
55 33 -13 40 -27 46 -91 5 -51 7 -55 33 -58 45 -5 57 12 57 85 0 86 23 82 30
-6 3 -40 10 -65 20 -71 8 -5 50 -10 92 -10 92 0 107 13 85 77 -12 38 -13 38
-65 37 -61 -2 -72 18 -19 35 66 22 127 -24 127 -97 0 -33 16 -52 45 -52 31 0
45 19 45 61 0 43 32 87 65 90 65 5 95 -21 95 -85 0 -50 16 -69 57 -64 l28 3 3
133 c2 124 4 132 22 132 19 0 20 -7 20 -134z m90 -16 c0 -127 -2 -150 -15
-150 -13 0 -15 23 -15 150 0 127 2 150 15 150 13 0 15 -23 15 -150z m420 0 c0
-136 -2 -150 -17 -150 -17 0 -18 13 -15 150 2 123 6 150 18 150 12 0 14 -26
14 -150z m430 0 c0 -127 -2 -150 -15 -150 -13 0 -15 23 -15 150 0 127 2 150
15 150 13 0 15 -23 15 -150z m223 124 c9 -10 -4 -34 -19 -34 -8 0 -14 9 -14
20 0 19 19 27 33 14z m55 -17 c2 -12 -3 -17 -17 -17 -12 0 -21 6 -21 13 0 31
32 34 38 4z m-5062 -8 c3 -6 2 -15 -2 -19 -12 -12 -38 5 -30 19 9 14 23 14 32
0z m374 -4 c0 -8 -9 -15 -20 -15 -11 0 -20 7 -20 15 0 8 9 15 20 15 11 0 20
-7 20 -15z m50 0 c0 -8 -6 -15 -14 -15 -17 0 -28 14 -19 24 12 12 33 6 33 -9z
m2778 -2 c-2 -10 -10 -18 -18 -18 -8 0 -16 8 -18 18 -2 12 3 17 18 17 15 0 20
-5 18 -17z m52 3 c0 -8 -4 -17 -8 -20 -13 -8 -35 11 -28 23 10 16 36 14 36 -3z
m2288 -3 c-5 -25 -28 -28 -28 -4 0 12 6 21 16 21 9 0 14 -7 12 -17z m-455
-101 c-3 -31 0 -69 6 -84 9 -24 16 -28 51 -28 l40 0 0 75 c0 60 3 75 15 75 8
0 15 -7 15 -15 0 -19 9 -19 34 0 30 23 108 19 140 -6 21 -16 26 -29 26 -64 0
-51 16 -68 62 -63 l33 3 3 73 c2 55 6 72 17 72 12 0 15 -15 15 -63 0 -67 10
-87 46 -87 29 0 40 16 48 70 9 60 29 80 81 80 48 0 71 -19 81 -66 8 -41 -20
-108 -41 -100 -9 3 -14 2 -11 -3 8 -12 -71 -6 -86 7 -9 7 -19 6 -32 -4 -24
-17 -58 -18 -73 -3 -8 8 -17 8 -31 0 -27 -15 -78 -14 -102 1 -15 10 -22 10
-32 0 -18 -18 -303 -17 -320 2 -8 9 -26 12 -51 8 -52 -7 -87 25 -87 80 0 51
27 78 79 78 25 0 41 5 45 15 3 8 12 12 20 9 11 -4 13 -19 9 -62z m-2186 24
c-2 -6 -19 -10 -41 -8 -80 8 -89 -44 -16 -89 43 -27 50 -35 50 -63 0 -49 -29
-69 -103 -74 -117 -8 -177 27 -177 101 0 31 20 87 30 87 17 0 21 -21 10 -54
-23 -72 37 -116 140 -102 83 11 88 43 15 88 -54 33 -67 68 -38 106 11 15 33
30 49 33 35 6 86 -9 81 -25z m-2064 13 c36 -16 47 -50 47 -140 0 -72 -3 -82
-25 -104 -29 -29 -105 -36 -105 -10 0 10 10 15 32 15 33 0 68 24 68 47 0 9
-13 13 -40 13 -30 0 -47 7 -65 25 -44 43 -27 132 29 155 28 12 31 12 59 -1z
m3410 -8 c17 -17 -2 -30 -31 -22 -37 11 -70 -3 -78 -33 -12 -48 30 -86 97 -86
20 0 29 -5 29 -16 0 -12 -11 -15 -62 -12 -71 3 -88 -4 -88 -34 0 -35 29 -58
72 -58 27 0 38 -4 38 -15 0 -11 -12 -15 -44 -15 -87 0 -130 77 -76 135 18 20
21 28 12 37 -13 13 -16 66 -6 93 15 37 109 54 137 26z m291 -10 c12 -12 21
-39 24 -70 4 -43 8 -52 27 -57 52 -13 60 -4 63 74 3 64 5 72 22 72 18 0 20 -7
20 -68 0 -88 -15 -112 -74 -112 -23 0 -47 5 -54 12 -9 9 -15 9 -24 0 -18 -18
-138 -16 -138 3 0 10 15 15 58 17 l57 3 3 47 c3 41 0 49 -22 64 -15 9 -37 14
-51 12 -20 -4 -25 -1 -25 15 0 18 5 19 47 13 26 -3 56 -15 67 -25z m-4536 -58
c4 -93 -8 -106 -92 -101 -61 3 -62 3 -58 -22 6 -45 -27 -63 -116 -64 -87 -1
-125 15 -143 62 -13 33 -2 102 17 109 23 9 27 -3 15 -40 -24 -72 31 -115 131
-104 59 7 68 12 68 38 0 14 -12 26 -40 37 -22 9 -40 23 -40 30 0 15 6 15 55
-3 22 -8 68 -14 102 -15 71 0 76 6 73 88 -2 63 -2 64 13 60 8 -3 13 -30 15
-75z m1532 57 c15 -15 20 -33 20 -70 0 -37 -5 -55 -20 -70 -23 -23 -79 -27
-110 -8 -15 10 -22 10 -32 0 -6 -6 -31 -12 -55 -12 -38 0 -43 -2 -43 -23 0
-38 -31 -57 -102 -64 -75 -7 -130 8 -153 40 -31 44 -11 160 24 138 10 -6 11
-13 2 -29 -16 -30 -13 -67 7 -92 34 -43 187 -35 187 10 0 8 -19 25 -43 38 -55
31 -42 46 22 27 59 -18 128 -19 144 -3 7 7 12 28 12 49 0 54 31 89 81 89 26 0
46 -7 59 -20z m3267 -207 c3 -7 -3 -10 -15 -7 -27 8 -47 -19 -27 -36 8 -7 22
-10 30 -6 8 3 15 1 15 -4 0 -6 -17 -10 -39 -10 -36 0 -38 1 -33 28 7 43 58 70
69 35z m-2497 -2 c0 -5 -10 -11 -22 -13 -33 -4 -29 -32 5 -36 45 -5 30 -22
-20 -22 -29 0 -43 4 -35 8 7 5 10 16 6 25 -3 10 -1 24 6 32 14 16 60 21 60 6z
m2378 -14 c2 -12 -3 -17 -17 -17 -12 0 -21 6 -21 13 0 31 32 34 38 4z m-4918
-83 c0 -17 -26 -19 -36 -3 -7 12 15 31 28 23 4 -3 8 -12 8 -20z m1380 0 c0 -8
-7 -14 -15 -14 -15 0 -21 21 -9 33 10 9 24 -2 24 -19z m60 0 c0 -8 -9 -14 -20
-14 -19 0 -27 19 -14 33 10 9 34 -4 34 -19z m-1492 4 c-7 -19 -38 -22 -38 -4
0 10 9 16 21 16 12 0 19 -5 17 -12z"/>
<path d="M5813 3928 c1 -8 -9 -12 -25 -12 -15 1 -25 -2 -22 -7 2 -4 12 -5 21
-2 11 4 14 3 9 -5 -4 -7 -3 -12 2 -12 6 0 13 7 16 16 3 9 11 12 18 8 9 -5 9
-3 -1 9 -16 20 -22 22 -18 5z"/>
<path d="M5640 3909 c-11 -8 -12 -12 -2 -16 15 -6 16 -23 1 -23 -6 0 -17 -7
-25 -15 -14 -13 -13 -15 3 -15 14 0 15 -2 4 -9 -9 -6 -10 -11 -2 -15 10 -7 15
5 12 30 -1 7 8 14 19 17 20 5 28 -7 11 -17 -11 -7 -22 -46 -13 -46 4 0 17 18
29 39 21 37 22 71 2 71 -13 0 -11 -18 4 -24 6 -3 3 -4 -8 -3 -12 2 -19 10 -19
20 1 9 1 17 0 17 0 0 -8 -5 -16 -11z"/>
<path d="M5550 3850 c0 -5 7 -10 16 -10 8 0 12 5 9 10 -3 6 -10 10 -16 10 -5
0 -9 -4 -9 -10z"/>
<path d="M5516 3815 c4 -8 11 -15 16 -15 6 0 5 6 -2 15 -7 8 -14 15 -16 15 -2
0 -1 -7 2 -15z"/>
<path d="M5580 3823 c0 -5 5 -15 10 -23 7 -12 9 -10 7 8 -1 19 -17 33 -17 15z"/>
<path d="M5550 3804 c0 -8 5 -12 10 -9 6 3 10 10 10 16 0 5 -4 9 -10 9 -5 0
-10 -7 -10 -16z"/>
<path d="M5878 3813 c6 -2 9 -10 6 -15 -4 -7 -2 -8 5 -4 13 9 5 26 -12 25 -9
0 -8 -2 1 -6z"/>
<path d="M5607 3786 c-3 -8 2 -20 11 -28 15 -12 16 -11 4 4 -8 10 -9 19 -3 22
5 3 12 1 14 -4 3 -6 4 -5 3 2 -3 18 -23 21 -29 4z"/>
<path d="M5576 3777 c3 -10 9 -15 12 -12 3 3 0 11 -7 18 -10 9 -11 8 -5 -6z"/>
<path d="M5800 3785 c0 -8 50 -105 54 -105 2 0 -2 16 -8 35 -6 19 -15 35 -19
35 -5 0 -6 3 -4 8 3 4 -1 13 -9 20 -8 7 -14 10 -14 7z"/>
<path d="M5510 3776 c0 -2 7 -7 16 -10 8 -3 12 -2 9 4 -6 10 -25 14 -25 6z"/>
<path d="M5892 3768 c-7 -7 -12 -16 -12 -21 0 -5 7 -1 16 8 9 9 14 18 12 20
-2 3 -10 -1 -16 -7z"/>
<path d="M5850 3759 c0 -5 5 -7 10 -4 6 3 10 8 10 11 0 2 -4 4 -10 4 -5 0 -10
-5 -10 -11z"/>
<path d="M5567 3749 c7 -7 15 -10 18 -7 3 3 -2 9 -12 12 -14 6 -15 5 -6 -5z"/>
<path d="M5582 3684 c-7 -8 -10 -19 -6 -26 5 -7 10 -3 16 12 10 28 7 33 -10
14z"/>
<path d="M6940 5081 c0 -25 4 -29 35 -33 34 -4 35 -3 35 29 0 31 -2 33 -35 33
-32 0 -35 -3 -35 -29z"/>
<path d="M6785 5047 c-29 -25 -29 -25 -11 -46 17 -19 21 -19 47 -5 34 17 35
24 11 54 l-18 22 -29 -25z"/>
<path d="M7115 5034 c-17 -26 -16 -27 9 -52 l25 -26 26 24 25 24 -27 28 c-33
34 -36 35 -58 2z"/>
<path d="M7197 4863 c-4 -3 -7 -21 -7 -40 0 -30 3 -33 29 -33 33 0 47 25 36
60 -6 19 -44 28 -58 13z"/>
<path d="M7126 4662 l-27 -29 20 -24 20 -24 31 30 31 31 -24 22 -23 22 -28
-28z"/>
<path d="M6770 4639 c-9 -16 -8 -25 6 -40 22 -25 39 -24 59 3 14 21 14 24 -7
40 -30 23 -45 22 -58 -3z"/>
<path d="M6940 4565 c0 -33 2 -35 34 -35 41 0 46 6 39 43 -5 23 -10 27 -39 27
-32 0 -34 -2 -34 -35z"/>
<path d="M5040 2676 c-25 -7 -62 -20 -83 -30 -57 -28 -208 -193 -251 -275
l-37 -70 53 -16 c72 -21 205 -19 308 5 92 22 236 89 312 145 l48 35 -18 34
c-27 51 -99 113 -167 146 -74 36 -107 41 -165 26z"/>
<path d="M9395 2449 c-4 -6 -5 -12 -2 -15 2 -3 7 2 10 11 7 17 1 20 -8 4z"/>
<path d="M9443 2403 c4 -6 0 -14 -9 -17 -13 -5 -14 -9 -4 -21 15 -18 -1 -20
-19 -2 -9 8 -12 8 -7 0 3 -6 0 -13 -6 -16 -7 -2 -1 -4 15 -4 15 0 30 4 34 11
11 17 11 46 0 53 -6 3 -7 1 -4 -4z"/>
<path d="M5940 2347 c0 -20 70 -87 97 -93 37 -10 73 4 73 26 0 24 -31 57 -66
70 -38 15 -104 13 -104 -3z"/>
<path d="M9115 2300 c-3 -5 -1 -10 4 -10 6 0 11 5 11 10 0 6 -2 10 -4 10 -3 0
-8 -4 -11 -10z"/>
<path d="M2715 2279 c-4 -6 -5 -12 -2 -15 2 -3 7 2 10 11 7 17 1 20 -8 4z"/>
<path d="M9570 2269 c0 -5 -4 -7 -10 -4 -15 9 -12 -4 4 -20 11 -12 14 -10 14
11 0 13 -2 24 -4 24 -2 0 -4 -5 -4 -11z"/>
<path d="M3956 2210 c29 -51 94 -103 110 -88 15 16 -20 66 -69 98 -73 49 -74
49 -41 -10z"/>
<path d="M9035 2220 c3 -5 8 -10 11 -10 2 0 4 5 4 10 0 6 -5 10 -11 10 -5 0
-7 -4 -4 -10z"/>
<path d="M9711 2614 c0 -11 3 -14 6 -6 3 7 2 16 -1 19 -3 4 -6 -2 -5 -13z"/>
<path d="M9723 2470 c1 -10 3 -17 6 -15 2 3 10 0 17 -6 7 -5 14 -6 17 -2 3 4
-6 16 -18 25 -23 17 -24 17 -22 -2z"/>
<path d="M9720 2430 c0 -5 5 -10 11 -10 5 0 7 5 4 10 -3 6 -8 10 -11 10 -2 0
-4 -4 -4 -10z"/>
<path d="M6835 3494 c-18 -19 -11 -30 34 -57 30 -18 30 -18 37 7 13 52 -35 86
-71 50z"/>
<path d="M5392 3384 c-12 -8 -22 -19 -22 -24 0 -8 61 -50 74 -50 11 0 6 66 -6
78 -15 15 -19 15 -46 -4z"/>
<path d="M8808 3139 c-27 -15 -22 -35 16 -58 18 -12 36 -21 40 -21 10 0 7 50
-4 71 -12 21 -26 23 -52 8z"/>
<path d="M5587 1923 c-4 -3 7 -15 24 -25 36 -22 45 -18 29 11 -10 20 -40 28
-53 14z"/>
<path d="M9165 1910 c6 -10 4 -12 -8 -7 -27 10 -32 -15 -7 -35 30 -25 41 -23
30 6 -5 13 -6 26 -4 29 3 3 0 8 -7 13 -8 5 -10 3 -4 -6z"/>
<path d="M4921 1833 c-23 -19 -46 -44 -52 -55 -11 -20 -9 -21 32 -14 66 10
150 52 143 70 -3 8 -13 18 -22 21 -40 17 -62 12 -101 -22z"/>
<path d="M4231 1801 c-11 -7 -8 -13 13 -26 30 -20 46 -13 30 12 -13 21 -25 25
-43 14z"/>
<path d="M3291 1639 c-32 -13 -22 -20 14 -11 16 5 25 11 20 14 -6 3 -21 2 -34
-3z"/>
<path d="M3762 833 c-46 -18 -25 -112 25 -113 18 0 53 41 53 62 0 36 -44 65
-78 51z"/>
<path d="M6402 818 c-7 -7 -12 -29 -12 -50 0 -41 19 -58 64 -58 24 0 26 3 26
48 0 52 -12 72 -45 72 -12 0 -26 -5 -33 -12z"/>
<path d="M7000 799 c-19 -44 -3 -83 33 -87 37 -4 57 13 57 50 0 45 -17 68 -49
68 -22 0 -31 -7 -41 -31z"/>
<path d="M8403 830 c-40 -16 -42 -83 -2 -95 10 -4 28 -3 40 0 17 6 20 14 17
53 -3 50 -14 59 -55 42z"/>
<path d="M9107 828 c-28 -15 -40 -57 -26 -89 19 -47 70 -45 90 2 21 51 -23
111 -64 87z"/>
<path d="M8648 812 c-24 -14 -28 -24 -28 -59 l0 -43 73 0 c43 0 78 5 85 12 17
17 15 74 -4 92 -21 21 -91 20 -126 -2z"/>
<path d="M4180 820 c-43 -43 -12 -115 47 -108 25 3 28 7 31 45 2 32 -2 47 -17
62 -26 26 -36 26 -61 1z"/>
<path d="M4863 829 c-27 -10 -38 -48 -26 -86 8 -23 15 -28 44 -28 27 0 35 5
43 26 19 55 -15 106 -61 88z"/>
</g>
</svg>
